<svg width="266" height="9" viewBox="0 0 266 9" fill="none" xmlns="http://www.w3.org/2000/svg">
<path d="M21.4477 7.3953C26.4228 7.45875 32.6726 7.45042 38.9216 7.64526C44.217 7.80762 49.5049 8.28819 54.8002 8.45732C57.9487 8.55391 61.1101 8.19014 64.2607 8.26193C71.9863 8.43496 79.7226 9.29216 87.4224 8.83953C94.7843 8.40517 102.1 8.24564 109.453 8.70288C114.362 9.00931 119.302 8.68853 124.229 8.61818C128.916 8.54928 133.602 8.45328 138.29 8.35053C144.498 8.21977 150.709 8.08226 156.918 7.92215C165.071 7.71235 173.227 7.55902 181.377 7.21597C184.955 7.06295 188.518 6.37922 192.097 6.15396C196.754 5.86118 201.421 5.83943 206.078 5.60536C211.034 5.35477 215.989 4.8152 220.944 4.73167C224.916 4.66719 228.892 5.04299 232.862 5.32164C235.317 5.49517 237.761 5.94625 240.216 6.10398C243.113 6.28767 246.015 6.31566 248.918 6.35493C250.475 6.37706 252.037 6.36537 253.591 6.22265C256.268 5.97912 258.782 6.66586 261.342 7.60605C262.17 7.91008 263.599 6.73859 264.4 5.76678C265.452 4.49341 265.052 2.84709 264.005 1.76592C263.502 1.24479 262.666 0.940643 262.011 1.01808C259.62 1.2946 257.24 2.09276 254.857 2.11204C250.344 2.15381 245.831 1.85017 241.323 1.5895C236.816 1.3311 232.286 1.23042 227.818 0.548097C223.552 -0.104558 219.437 1.33067 215.235 1.35835C208.363 1.39938 201.484 1.45838 194.615 1.78164C189.315 2.03234 184.026 2.8363 178.727 3.13443C174.323 3.38077 169.909 3.21159 165.499 3.30659C162.417 3.3734 159.337 3.65016 156.256 3.69891C153.034 3.74812 149.808 3.48799 146.593 3.64112C143.263 3.80184 139.944 4.53158 136.62 4.59076C131.767 4.67787 126.911 4.32697 122.055 4.27857C118.323 4.25129 114.585 4.47904 110.854 4.43144C106.772 4.37938 102.691 4.0045 98.6115 4.04503C95.7847 4.07219 92.9596 4.67052 90.1313 4.81957C87.3599 4.96256 84.5813 4.83682 81.806 4.86464C80.2301 4.88291 78.6477 5.12686 77.0788 5.00526C73.3909 4.71667 69.7162 4.09639 66.0266 3.93871C62.6513 3.79633 59.2649 4.10982 55.8833 4.18183C54.4973 4.2093 53.113 4.09909 51.7274 4.09722C46.5401 4.09426 41.3539 4.14551 36.1687 4.10872C31.9037 4.08141 27.6415 3.83968 23.3789 3.9027C17.1334 3.99236 10.8858 4.24227 4.63821 4.49444C3.57355 4.5373 2.42233 4.68064 1.49297 5.258C0.987962 5.57439 0.862772 6.89345 0.565748 7.75655C1.1183 8.02998 1.67133 8.54498 2.22046 8.52941C5.3571 8.44074 8.4934 8.23918 11.6313 8.04894C14.4741 7.87976 17.3174 7.67221 21.4477 7.3953Z" fill="#FD6727"/>
</svg>
